#!OML:ASF E:/inclinewalkrobotboard/Project1/Captureday1/Session1/subject1.ASF
:FULLY-SPECIFIED
:DEGREES
76
root 0 0 0 -1.4154642235145047 21.414676195839053 8.564941064573107
lowerback -4.006321161877746 -6.060331884868829 -6.345279699584662
upperback -8.381230546059093 -7.505229404345734 6.980456545285893
thorax -6.089315319030742 -2.6197979121838717 10.959241082731648
lowerneck -5.608430731135081 -8.872229152280369 -7.668646907990167
upperneck 32.211533851444955 -11.456836894047715 1.879712760274753
head 12.135430655316735 -5.8322466598955165 0.3697138887301681
rclavicle -3.7097611914771006E-15 -2.4065437701679603E-15
rhumerus -18.94665885396673 -26.953980516248304 -16.66043404474646
rradius 62.43196064209031
rwrist -12.292863233181485
rhand -26.621173070812382 32.39413613247094
rfingers 7.1250199999999655
rthumb -0.037152588481330184 1.621532824266371
lclavicle 3.9711589762706235E-16 -3.886451423103055E-15
lhumerus 21.15434527964575 2.76067874752293 43.70991145907682
lradius 64.02657022217547
lwrist -6.174746238096245
lhand -14.311339571781817 7.511327447717129
lfingers 7.125019999999962
lthumb 11.66620707332669 35.649948679117614
rfemur 138.41055616396167 -154.2314824794118 -119.7450686118852
rtibia 28.443774152395704
rfoot -13.904152363597245 -49.52296538076408
rtoes 4.540362745381451
lfemur -82.082231475777 24.020513923528554 -56.97845570780821
ltibia 68.25456282221367
lfoot 12.604302710028232 31.920563838027856
ltoes 0.14194155570226208
77
root 0 0 0 -1.4100460662670038 21.42459668293318 8.569206347071054
lowerback -4.016381382882092 -6.061110084710188 -6.348591353400046
upperback -8.385307798097392 -7.5060255682631 6.98146382141231
thorax -6.087978941657596 -2.6198490622585826 10.962173909531963
lowerneck -5.604981811160377 -8.874137758655213 -7.6698123912899305
upperneck 32.217216982848655 -11.459435701283057 1.878748170175887
head 12.13697458920182 -5.833522277674074 0.36936473216172394
rclavicle -3.700959872614469E-15 -2.4035417112128832E-15
rhumerus -18.92409682109355 -26.949623046561225 -16.671583219188683
rradius 62.42826600167878
rwrist -12.294909614081824
rhand -26.619276840203696 32.389216378743804
rfingers 7.1250199999999655
rthumb -0.035267816974261734 1.6166867900351463
lclavicle 4.092311772084338E-16 -3.863166025239184E-15
lhumerus 21.365586958796005 2.8451585837823807 43.46283591109252
lradius 63.997659485112266
lwrist -6.307487639448155
lhand -14.252039458517554 7.504898466696982
lfingers 7.125019999999963
lthumb 11.72323340310745 35.64021282159516
rfemur 138.65428456542435 -154.50353781346595 -119.99473459998589
rtibia 28.46527377279074
rfoot -13.936003017567767 -49.565776811807865
rtoes 4.561780598494277
lfemur -82.07258177907357 24.02277134769047 -56.998493583404766
ltibia 68.28217746037001
lfoot 12.552346587940018 31.929304930819846
ltoes 0.11430785978613756
78
root 0 0 0 -1.4083793027028761 21.42733285600851 8.57313049126663
lowerback -4.021040056540389 -6.061512930959784 -6.3509523689676834
upperback -8.387450764739155 -7.506447340616784 6.981740753915659
thorax -6.087782206960929 -2.6197442349908195 10.963784043755254
lowerneck -5.602959102691168 -8.874576817470109 -7.670000638597027
upperneck 32.21895193338098 -11.460011623888127 1.8785315527285718
head 12.137212904792252 -5.833810328389011 0.36927598432074094
rclavicle -3.701586611461066E-15 -2.4081346117730614E-15
rhumerus -18.92128400410334 -26.946228801239304 -16.677306128066547
rradius 62.42190320863011
rwrist -12.290026276193998
rhand -26.618965772487325 32.38704096717803
rfingers 7.1250199999999655
rthumb -0.03489011035455647 1.6143582642571097
lclavicle 3.820288519744435E-16 -3.858189558888117E-15
lhumerus 21.555804705691628 2.930483435224532 43.24769354152354
lradius 63.96928906860679
lwrist -6.426816224224166
lhand -14.204472519053628 7.500829789268593
lfingers 7.125019999999963
lthumb 11.769140432573817 35.63469999587206
rfemur 138.81778019214596 -154.67866396570122 -120.15720309465173
rtibia 28.473307471070278
rfoot -13.942297898549963 -49.60408915373074
rtoes 4.571857354237611
lfemur -82.07813214143292 24.025829425241792 -57.00461052509352
ltibia 68.2935976841876
lfoot 12.534452954943415 31.934397295155698
ltoes 0.114870253709487
79
root 0 0 0 -1.405457546383591 21.42643624643379 8.575031787929147
lowerback -4.02515724845358 -6.061720434581613 -6.352471256248119
upperback -8.389342870441249 -7.506668746965698 6.981867323935635
thorax -6.087555397903316 -2.619676426951001 10.964781180182928
lowerneck -5.601568544660451 -8.874776023708295 -7.670085848662513
upperneck 32.22060647060299 -11.46045744481558 1.8788390736198066
head 12.137578198677591 -5.8339684361065975 0.3693695579226195
rclavicle -3.7090008435935485E-15 -2.4161370038467015E-15
rhumerus -18.916353356189063 -26.942795939778044 -16.679826232005745
rradius 62.4175598627948
rwrist -12.285453445407022
rhand -26.61912257051492 32.38510120203092
rfingers 7.1250199999999655
rthumb -0.03496359648676872 1.6121873270065556
lclavicle 3.381307103077972E-16 -3.862009318701785E-15
lhumerus 21.744178485210927 3.0138032682803217 43.04287717334441
lradius 63.941219430648665
lwrist -6.54139502095626
lhand -14.161390052465409 7.496715153060997
lfingers 7.125019999999964
lthumb 11.810766836718546 35.62964445425611
rfemur 138.9745895476766 -154.83959764193872 -120.30916113212369
rtibia 28.47371918520856
rfoot -13.93706216274972 -49.64670965981392
rtoes 4.583046660194814
lfemur -82.08178461541843 24.02768428823031 -57.00514020570607
ltibia 68.30135356594775
lfoot 12.510247710927754 31.93820612421996
ltoes 0.11441586378055746
80
root 0 0 0 30.158945698076504 -14.041586334373076 -8.698348812678967
lowerback -5.8274574189445705 0.028907530912255508 -2.712864053299857
upperback -13.87584007009756 0.03297814988174119 3.2872033582613147
thorax -11.688358072665324 0.5272346479332043 5.299571193085215
lowerneck -7.041229281880238 1.9890358319209986 0.27811620688331234
upperneck 21.64252800401925 2.0759680726146392 4.6986663882607305
head 8.242302836914304 1.1927854474316413 1.2993560260643646
rclavicle 5.763071746821977E-15 8.38151491299713E-15
rhumerus 5.9800420297711145 -16.20890412046372 -56.720806811959164
rradius 28.05919202550365
rwrist 23.69282964004156
rhand 0.9367235331624668 8.192661644699472
rfingers 7.125019999999934
rthumb 26.346016052663295 -18.44140337245245
lclavicle 1.2608413711067935E-15 1.5851150306311557E-15
lhumerus -12.282667899069471 9.375561457772626 26.25293016440132
lradius 34.179689012633126
lwrist -24.593509264211555
lhand 7.837897946583931 23.670627307821032
lfingers 7.125019999999958
lthumb 32.967478821054975 49.77545036272948
rfemur 71.44600530579645 -100.36636906904585 -76.70345136346492
rtibia 49.85137004782974
rfoot -20.70819815843648 -13.319149558265654
rtoes 26.932725409255415
lfemur -76.65244374512406 21.539137806379742 -47.49886470802646
ltibia 59.106496314800886
lfoot 9.147500391908718 27.022296315948633
ltoes 5.249466446781239
